<?xml version="1.0" encoding="UTF-8" standalone="no"?>
<!-- Created with Inkscape (http://www.inkscape.org/) -->

<svg
   width="155.16197mm"
   height="155.16197mm"
   viewBox="0 0 155.16197 155.16197"
   version="1.1"
   id="svg1"
   xml:space="preserve"
   inkscape:version="1.4.3 (0d15f75, 2025-12-25)"
   sodipodi:docname="zoomble.svg"
   xmlns:inkscape="http://www.inkscape.org/namespaces/inkscape"
   xmlns:sodipodi="http://sodipodi.sourceforge.net/DTD/sodipodi-0.dtd"
   xmlns="http://www.w3.org/2000/svg"
   xmlns:svg="http://www.w3.org/2000/svg"><sodipodi:namedview
     id="namedview1"
     pagecolor="#ffffff"
     bordercolor="#000000"
     borderopacity="0.25"
     inkscape:showpageshadow="2"
     inkscape:pageopacity="0.0"
     inkscape:pagecheckerboard="0"
     inkscape:deskcolor="#d1d1d1"
     inkscape:document-units="mm"
     inkscape:zoom="0.97386896"
     inkscape:cx="264.9227"
     inkscape:cy="253.11413"
     inkscape:window-width="1920"
     inkscape:window-height="991"
     inkscape:window-x="1911"
     inkscape:window-y="-9"
     inkscape:window-maximized="1"
     inkscape:current-layer="layer1" /><defs
     id="defs1" /><g
     inkscape:label="Layer 1"
     inkscape:groupmode="layer"
     id="layer1"
     transform="translate(-36.241347,-67.621006)"><ellipse
       style="display:inline;fill:none;stroke:#000000;stroke-width:9.26042;stroke-dasharray:none;stroke-opacity:1"
       id="path1"
       cx="104.93212"
       cy="161.33687"
       rx="32.535141"
       ry="32.506332" /><path
       style="fill:none;stroke:#000000;stroke-width:2.64583;stroke-dasharray:none;stroke-opacity:1"
       d="m 127.37164,188.39009 34.50684,32.69626 c 0,0 8.3454,1.21792 7.31394,-7.21379 l -37.03858,-33.82048"
       id="path3" /><path
       style="fill:#000000;stroke:#000000;stroke-width:2.64584;stroke-dasharray:none;stroke-opacity:1"
       d="m 133.49067,182.55529 c -1.48649,1.94517 -3.1482,3.73262 -4.94746,5.39146 -0.43137,0.27868 0.10261,0.58636 0.30637,0.79652 10.63742,10.06854 21.2556,20.15746 31.90218,30.21618 0.53816,0.46048 1.01809,1.01328 1.61771,1.39043 0.96706,0.13175 1.9607,-0.0488 2.89577,-0.3029 1.25967,-0.35328 2.38651,-1.24979 2.84872,-2.4951 0.45818,-0.99567 0.33693,-2.12152 0.40266,-3.1843 -0.35477,-0.52352 -0.93778,-0.88581 -1.38092,-1.34691 -11.12754,-10.16065 -22.25505,-20.32135 -33.38253,-30.48207 -0.10914,-0.0599 -0.16095,-0.0539 -0.2625,0.0167 z"
       id="path10" /><path
       style="fill:#ffffff;stroke:#000000;stroke-width:3.96875;stroke-linejoin:round;stroke-dasharray:none;stroke-opacity:1"
       d="m 94.865616,166.43711 -1.00368,11.70734 18.406914,1.57804 1.00367,-11.70734 z"
       id="path11" /><path
       style="fill:#ffffff;stroke:#000000;stroke-width:3.96875;stroke-linejoin:round;stroke-dasharray:none;stroke-opacity:1"
       d="m 130.74004,105.19146 c 0,0 7.60125,20.41504 -32.476545,17.63561 l -2.560572,37.81923 17.865517,1.53162 4.01432,-22.96993 c 0,0 39.43949,4.33556 36.32726,-38.87823 0,0 -4.373,-34.868823 -39.71749,-29.718558 0,0 -25.437203,4.090868 -29.915501,22.930829 l 12.026067,18.755159 c 3.801154,-21.975808 29.441854,-23.60564 34.436944,-7.10573 z"
       id="path12"
       sodipodi:nodetypes="cccccccccc" /><path
       style="fill:#7bc724;fill-opacity:1;stroke:#000000;stroke-width:3.3245;stroke-linecap:round;stroke-linejoin:round;stroke-dasharray:none;stroke-opacity:1"
       d="m 64.660536,157.78471 c 0,0 19.175561,-8.96165 21.547537,8.35261 0.33976,-25.90897 -18.372025,-25.39471 -18.372025,-25.39471 -9.497795,-0.36293 -11.012073,9.28489 -11.012073,9.28489 -0.261394,8.82828 7.836561,7.75721 7.836561,7.75721 z"
       id="path79"
       sodipodi:nodetypes="ccccc" /><path
       style="fill:#0061eb;fill-opacity:1;stroke:#000000;stroke-width:2.38125;stroke-linecap:round;stroke-linejoin:round;stroke-dasharray:none;stroke-opacity:1"
       d="m 72.524938,136.05526 c 0,0 14.303443,-5.06615 14.783062,7.43526 2.056073,-18.43934 -11.325246,-19.36087 -11.325246,-19.36087 -6.748457,-0.91238 -8.503839,5.85842 -8.503839,5.85842 -0.804453,6.27303 5.046023,6.06719 5.046023,6.06719 z"
       id="path79-2"
       sodipodi:nodetypes="ccccc" /><path
       style="fill:#7e00bd;fill-opacity:1;stroke:#000000;stroke-width:2.38125;stroke-linecap:round;stroke-linejoin:round;stroke-dasharray:none;stroke-opacity:1"
       d="m 69.807354,178.40301 c 0,0 6.810858,-13.57108 15.81112,-4.89379 -11.281729,-14.71539 -21.57246,-6.09924 -21.57246,-6.09924 -5.499703,4.02268 -2.078781,10.11988 -2.078781,10.11988 3.762301,5.07897 7.840121,0.87315 7.840121,0.87315 z"
       id="path79-2-7"
       sodipodi:nodetypes="ccccc" /><path
       style="fill:#db0000;fill-opacity:1;stroke:#00000f;stroke-width:3.10887;stroke-linecap:round;stroke-linejoin:round;stroke-dasharray:none;stroke-opacity:1"
       d="m 143.81808,172.77286 c 0,0 -10.99808,-16.5448 -21.33847,-3.62229 12.35673,-21.21593 27.10069,-11.75891 27.10069,-11.75891 7.78799,4.29321 4.29875,12.86385 4.29875,12.86385 -4.09377,7.29951 -10.06097,2.51735 -10.06097,2.51735 z"
       id="path79-1"
       sodipodi:nodetypes="ccccc" /><path
       style="fill:#db672e;fill-opacity:1;stroke:#000000;stroke-width:2.38125;stroke-linecap:round;stroke-linejoin:round;stroke-dasharray:none;stroke-opacity:1"
       d="m 145.584,151.80347 c 0,0 -10.99458,-10.52031 -16.55516,0.87188 5.67649,-17.92859 18.2818,-13.33374 18.2818,-13.33374 6.54054,1.90235 5.37034,8.89299 5.37034,8.89299 -1.83521,6.14203 -7.09698,3.56887 -7.09698,3.56887 z"
       id="path79-1-2"
       sodipodi:nodetypes="ccccc" /><path
       style="fill:#dbbb2e;fill-opacity:1;stroke:#000000;stroke-width:2.38125;stroke-linecap:round;stroke-linejoin:round;stroke-dasharray:none;stroke-opacity:1"
       d="m 132.61389,188.02613 c 0,0 -2.70772,-14.98551 -13.89855,-9.05768 15.12568,-11.142 22.61792,0.005 22.61792,0.005 4.17064,5.39427 -0.88363,10.35385 -0.88363,10.35385 -5.09329,3.88161 -7.83574,-1.30073 -7.83574,-1.30073 z"
       id="path79-1-1"
       sodipodi:nodetypes="ccccc" /></g></svg>
